<mxfile host="app.diagrams.net" modified="2023-06-19T11:33:52.990Z" agent="Mozilla/5.0 (Windows NT 10.0; Win64; x64) AppleWebKit/537.36 (KHTML, like Gecko) Chrome/113.0.0.0 Safari/537.36" etag="iQq15pA6nihSxDsBkCaI" version="21.5.0" type="device" pages="2">
  <diagram id="DIqVZYVPKxm5ljpdpIak" name="Cas d&#39;utilisation">
    <mxGraphModel dx="1433" dy="751" grid="1" gridSize="10" guides="1" tooltips="1" connect="1" arrows="1" fold="1" page="1" pageScale="1" pageWidth="827" pageHeight="1169" math="0" shadow="0">
      <root>
        <mxCell id="0" />
        <mxCell id="1" parent="0" />
        <mxCell id="JOEnJOUyb9SJxBhTRt3t-5" value="Système d&#39;Observation et&lt;br&gt;d&#39;Analyse et&amp;nbsp; du Réseau&lt;br&gt;(SOAR)" style="html=1;verticalAlign=top;" parent="1" vertex="1">
          <mxGeometry x="280" y="220" width="240" height="660" as="geometry" />
        </mxCell>
        <mxCell id="JOEnJOUyb9SJxBhTRt3t-7" style="edgeStyle=orthogonalEdgeStyle;rounded=0;orthogonalLoop=1;jettySize=auto;html=1;endArrow=classic;endFill=1;strokeWidth=3;" parent="1" source="JOEnJOUyb9SJxBhTRt3t-1" target="JOEnJOUyb9SJxBhTRt3t-6" edge="1">
          <mxGeometry relative="1" as="geometry" />
        </mxCell>
        <mxCell id="JOEnJOUyb9SJxBhTRt3t-28" style="edgeStyle=orthogonalEdgeStyle;rounded=0;orthogonalLoop=1;jettySize=auto;html=1;endArrow=classic;endFill=1;strokeWidth=3;" parent="1" source="JOEnJOUyb9SJxBhTRt3t-1" target="JOEnJOUyb9SJxBhTRt3t-27" edge="1">
          <mxGeometry relative="1" as="geometry">
            <Array as="points">
              <mxPoint x="320" y="310" />
              <mxPoint x="320" y="397" />
            </Array>
          </mxGeometry>
        </mxCell>
        <mxCell id="JOEnJOUyb9SJxBhTRt3t-29" style="edgeStyle=orthogonalEdgeStyle;rounded=0;orthogonalLoop=1;jettySize=auto;html=1;endArrow=classic;endFill=1;strokeWidth=3;" parent="1" source="JOEnJOUyb9SJxBhTRt3t-1" target="JOEnJOUyb9SJxBhTRt3t-26" edge="1">
          <mxGeometry relative="1" as="geometry">
            <Array as="points">
              <mxPoint x="320" y="310" />
              <mxPoint x="320" y="484" />
            </Array>
          </mxGeometry>
        </mxCell>
        <mxCell id="JOEnJOUyb9SJxBhTRt3t-1" value="Analyste" style="shape=umlActor;verticalLabelPosition=bottom;verticalAlign=middle;html=1;" parent="1" vertex="1">
          <mxGeometry x="190" y="280" width="30" height="60" as="geometry" />
        </mxCell>
        <mxCell id="JOEnJOUyb9SJxBhTRt3t-3" style="edgeStyle=orthogonalEdgeStyle;rounded=0;orthogonalLoop=1;jettySize=auto;html=1;endArrow=block;endFill=0;strokeWidth=3;" parent="1" source="JOEnJOUyb9SJxBhTRt3t-2" target="JOEnJOUyb9SJxBhTRt3t-1" edge="1">
          <mxGeometry relative="1" as="geometry" />
        </mxCell>
        <mxCell id="JOEnJOUyb9SJxBhTRt3t-30" style="edgeStyle=orthogonalEdgeStyle;rounded=0;orthogonalLoop=1;jettySize=auto;html=1;endArrow=classic;endFill=1;strokeWidth=3;" parent="1" source="JOEnJOUyb9SJxBhTRt3t-2" target="JOEnJOUyb9SJxBhTRt3t-9" edge="1">
          <mxGeometry relative="1" as="geometry">
            <Array as="points">
              <mxPoint x="280" y="571" />
              <mxPoint x="280" y="571" />
            </Array>
          </mxGeometry>
        </mxCell>
        <mxCell id="JOEnJOUyb9SJxBhTRt3t-31" style="edgeStyle=orthogonalEdgeStyle;rounded=0;orthogonalLoop=1;jettySize=auto;html=1;endArrow=classic;endFill=1;strokeWidth=3;" parent="1" source="JOEnJOUyb9SJxBhTRt3t-2" target="JOEnJOUyb9SJxBhTRt3t-10" edge="1">
          <mxGeometry relative="1" as="geometry">
            <Array as="points">
              <mxPoint x="320" y="571" />
              <mxPoint x="320" y="658" />
            </Array>
          </mxGeometry>
        </mxCell>
        <mxCell id="JOEnJOUyb9SJxBhTRt3t-32" style="edgeStyle=orthogonalEdgeStyle;rounded=0;orthogonalLoop=1;jettySize=auto;html=1;endArrow=classic;endFill=1;strokeWidth=3;" parent="1" source="JOEnJOUyb9SJxBhTRt3t-2" target="JOEnJOUyb9SJxBhTRt3t-11" edge="1">
          <mxGeometry relative="1" as="geometry">
            <Array as="points">
              <mxPoint x="320" y="571" />
              <mxPoint x="320" y="745" />
            </Array>
          </mxGeometry>
        </mxCell>
        <mxCell id="JOEnJOUyb9SJxBhTRt3t-2" value="Expert" style="shape=umlActor;verticalLabelPosition=bottom;verticalAlign=top;html=1;" parent="1" vertex="1">
          <mxGeometry x="190" y="541" width="30" height="60" as="geometry" />
        </mxCell>
        <mxCell id="JOEnJOUyb9SJxBhTRt3t-6" value="S&#39;authentifier" style="ellipse;whiteSpace=wrap;html=1;" parent="1" vertex="1">
          <mxGeometry x="360" y="275" width="140" height="70" as="geometry" />
        </mxCell>
        <mxCell id="JOEnJOUyb9SJxBhTRt3t-9" value="Observer les captures&lt;br&gt;courantes" style="ellipse;whiteSpace=wrap;html=1;" parent="1" vertex="1">
          <mxGeometry x="360" y="536" width="140" height="70" as="geometry" />
        </mxCell>
        <mxCell id="JOEnJOUyb9SJxBhTRt3t-10" value="Démarrer&lt;br&gt;des captures" style="ellipse;whiteSpace=wrap;html=1;" parent="1" vertex="1">
          <mxGeometry x="360" y="623" width="140" height="70" as="geometry" />
        </mxCell>
        <mxCell id="JOEnJOUyb9SJxBhTRt3t-11" value="Supprimer&lt;br&gt;des captures" style="ellipse;whiteSpace=wrap;html=1;" parent="1" vertex="1">
          <mxGeometry x="360" y="710" width="140" height="70" as="geometry" />
        </mxCell>
        <mxCell id="JOEnJOUyb9SJxBhTRt3t-26" value="Observer les captures&lt;br&gt;enregistrées" style="ellipse;whiteSpace=wrap;html=1;" parent="1" vertex="1">
          <mxGeometry x="360" y="449" width="140" height="70" as="geometry" />
        </mxCell>
        <mxCell id="JOEnJOUyb9SJxBhTRt3t-27" value="Demander une capture&lt;br&gt;spécifique" style="ellipse;whiteSpace=wrap;html=1;" parent="1" vertex="1">
          <mxGeometry x="360" y="362" width="140" height="70" as="geometry" />
        </mxCell>
        <mxCell id="O3LRscZVwoZkh5BAsU8o-1" value="Enregistrer&lt;br&gt;des captures" style="ellipse;whiteSpace=wrap;html=1;" parent="1" vertex="1">
          <mxGeometry x="360" y="800" width="140" height="70" as="geometry" />
        </mxCell>
        <mxCell id="O3LRscZVwoZkh5BAsU8o-2" style="edgeStyle=orthogonalEdgeStyle;rounded=0;orthogonalLoop=1;jettySize=auto;html=1;endArrow=classic;endFill=1;strokeWidth=3;" parent="1" source="JOEnJOUyb9SJxBhTRt3t-2" target="O3LRscZVwoZkh5BAsU8o-1" edge="1">
          <mxGeometry relative="1" as="geometry">
            <Array as="points">
              <mxPoint x="320" y="571" />
              <mxPoint x="320" y="835" />
            </Array>
          </mxGeometry>
        </mxCell>
        <mxCell id="iGKAIolN2ZO826p3tywY-2" value="Hypothèse 1 : le SOAR est interfacé avec un système d&#39;authentification qui gère les comptes des analystes et experts. Ce système pourra être conçu à part ou intégré en fonction des besoins." style="text;html=1;strokeColor=none;fillColor=none;align=left;verticalAlign=top;whiteSpace=wrap;rounded=0;fontSize=20;" parent="1" vertex="1">
          <mxGeometry x="10" y="120" width="640" height="100" as="geometry" />
        </mxCell>
        <mxCell id="iGKAIolN2ZO826p3tywY-4" style="edgeStyle=orthogonalEdgeStyle;rounded=0;orthogonalLoop=1;jettySize=auto;html=1;fontSize=12;strokeWidth=3;" parent="1" source="iGKAIolN2ZO826p3tywY-3" target="JOEnJOUyb9SJxBhTRt3t-6" edge="1">
          <mxGeometry relative="1" as="geometry" />
        </mxCell>
        <mxCell id="iGKAIolN2ZO826p3tywY-3" value="Système d&#39;Authentification&lt;br&gt;Tiers (SAT)" style="rounded=0;whiteSpace=wrap;html=1;fontSize=12;align=center;" parent="1" vertex="1">
          <mxGeometry x="590" y="280" width="120" height="60" as="geometry" />
        </mxCell>
      </root>
    </mxGraphModel>
  </diagram>
  <diagram id="ZEnNyK5AEZnJP0tSi-L5" name="Activités">
    <mxGraphModel dx="1752" dy="1654" grid="1" gridSize="10" guides="1" tooltips="1" connect="1" arrows="1" fold="1" page="1" pageScale="1" pageWidth="827" pageHeight="1169" math="0" shadow="0">
      <root>
        <mxCell id="S9qCdcLRZVfNC3w6PutM-0" />
        <mxCell id="S9qCdcLRZVfNC3w6PutM-1" parent="S9qCdcLRZVfNC3w6PutM-0" />
        <mxCell id="2QbaHEwzH14cysp2B7wd-0" value="" style="rounded=0;whiteSpace=wrap;html=1;" parent="S9qCdcLRZVfNC3w6PutM-1" vertex="1">
          <mxGeometry x="320" y="-420" width="240" height="400" as="geometry" />
        </mxCell>
        <mxCell id="_U7OGRrR2ULJxom2kXA7-19" value="Activités du cas d&#39;utilisation &quot;S&#39;authentifier&quot;" style="shape=umlFrame;whiteSpace=wrap;html=1;width=270;height=30;boundedLbl=1;verticalAlign=middle;align=left;spacingLeft=5;" parent="S9qCdcLRZVfNC3w6PutM-1" vertex="1">
          <mxGeometry x="-200" y="-500" width="800" height="520" as="geometry" />
        </mxCell>
        <mxCell id="_U7OGRrR2ULJxom2kXA7-39" value="Activités du cas d&#39;utilisation &quot;Demander une capture spécifique&quot;" style="shape=umlFrame;whiteSpace=wrap;html=1;width=360;height=30;boundedLbl=1;verticalAlign=middle;align=left;spacingLeft=5;" parent="S9qCdcLRZVfNC3w6PutM-1" vertex="1">
          <mxGeometry x="40" y="160" width="560" height="400" as="geometry" />
        </mxCell>
        <mxCell id="nfGt8PAzte9HpJvGnNqL-7" value="" style="rounded=0;whiteSpace=wrap;html=1;" parent="S9qCdcLRZVfNC3w6PutM-1" vertex="1">
          <mxGeometry x="-160" y="-420" width="240" height="400" as="geometry" />
        </mxCell>
        <mxCell id="lRThjBFoWjCmWjWxzz1Y-3" value="" style="rounded=0;whiteSpace=wrap;html=1;" parent="S9qCdcLRZVfNC3w6PutM-1" vertex="1">
          <mxGeometry x="80" y="-420" width="240" height="400" as="geometry" />
        </mxCell>
        <mxCell id="nfGt8PAzte9HpJvGnNqL-6" value="Analyste" style="rounded=0;whiteSpace=wrap;html=1;" parent="S9qCdcLRZVfNC3w6PutM-1" vertex="1">
          <mxGeometry x="-160" y="-460" width="240" height="40" as="geometry" />
        </mxCell>
        <mxCell id="lRThjBFoWjCmWjWxzz1Y-6" value="SAOR" style="rounded=0;whiteSpace=wrap;html=1;" parent="S9qCdcLRZVfNC3w6PutM-1" vertex="1">
          <mxGeometry x="80" y="-460" width="240" height="40" as="geometry" />
        </mxCell>
        <mxCell id="_U7OGRrR2ULJxom2kXA7-0" style="edgeStyle=orthogonalEdgeStyle;rounded=0;orthogonalLoop=1;jettySize=auto;html=1;endArrow=classic;endFill=1;strokeWidth=3;" parent="S9qCdcLRZVfNC3w6PutM-1" source="nfGt8PAzte9HpJvGnNqL-0" target="lRThjBFoWjCmWjWxzz1Y-5" edge="1">
          <mxGeometry relative="1" as="geometry" />
        </mxCell>
        <mxCell id="_U7OGRrR2ULJxom2kXA7-5" style="edgeStyle=orthogonalEdgeStyle;rounded=0;orthogonalLoop=1;jettySize=auto;html=1;endArrow=classic;endFill=1;strokeWidth=3;" parent="S9qCdcLRZVfNC3w6PutM-1" source="_U7OGRrR2ULJxom2kXA7-3" target="nfGt8PAzte9HpJvGnNqL-0" edge="1">
          <mxGeometry relative="1" as="geometry" />
        </mxCell>
        <mxCell id="_U7OGRrR2ULJxom2kXA7-6" value="[entrées invalides]" style="edgeLabel;html=1;align=center;verticalAlign=middle;resizable=0;points=[];" parent="_U7OGRrR2ULJxom2kXA7-5" vertex="1" connectable="0">
          <mxGeometry x="0.2272" y="-3" relative="1" as="geometry">
            <mxPoint x="44.31" y="-12" as="offset" />
          </mxGeometry>
        </mxCell>
        <mxCell id="_U7OGRrR2ULJxom2kXA7-9" style="edgeStyle=orthogonalEdgeStyle;rounded=0;orthogonalLoop=1;jettySize=auto;html=1;endArrow=classic;endFill=1;strokeWidth=3;" parent="S9qCdcLRZVfNC3w6PutM-1" source="lRThjBFoWjCmWjWxzz1Y-0" target="nfGt8PAzte9HpJvGnNqL-0" edge="1">
          <mxGeometry x="-160" y="-420" as="geometry" />
        </mxCell>
        <mxCell id="lRThjBFoWjCmWjWxzz1Y-0" value="" style="ellipse;fillColor=#000000;strokeColor=none;" parent="S9qCdcLRZVfNC3w6PutM-1" vertex="1">
          <mxGeometry x="-55" y="-380" width="30" height="30" as="geometry" />
        </mxCell>
        <mxCell id="nfGt8PAzte9HpJvGnNqL-0" value="Remplir le formulaire&lt;br&gt;d&#39;authentification" style="html=1;align=center;verticalAlign=top;rounded=1;absoluteArcSize=1;arcSize=10;dashed=0;" parent="S9qCdcLRZVfNC3w6PutM-1" vertex="1">
          <mxGeometry x="-110" y="-320" width="140" height="40" as="geometry" />
        </mxCell>
        <mxCell id="_U7OGRrR2ULJxom2kXA7-4" style="edgeStyle=orthogonalEdgeStyle;rounded=0;orthogonalLoop=1;jettySize=auto;html=1;endArrow=classic;endFill=1;strokeWidth=3;" parent="S9qCdcLRZVfNC3w6PutM-1" source="lRThjBFoWjCmWjWxzz1Y-5" target="_U7OGRrR2ULJxom2kXA7-3" edge="1">
          <mxGeometry x="80" y="-420" as="geometry" />
        </mxCell>
        <mxCell id="lRThjBFoWjCmWjWxzz1Y-5" value="Vérifier les entrées&lt;br&gt;utilisateur" style="html=1;align=center;verticalAlign=top;rounded=1;absoluteArcSize=1;arcSize=10;dashed=0;" parent="S9qCdcLRZVfNC3w6PutM-1" vertex="1">
          <mxGeometry x="130" y="-320" width="140" height="40" as="geometry" />
        </mxCell>
        <mxCell id="_U7OGRrR2ULJxom2kXA7-10" style="edgeStyle=orthogonalEdgeStyle;rounded=0;orthogonalLoop=1;jettySize=auto;html=1;endArrow=classic;endFill=1;strokeWidth=3;" parent="S9qCdcLRZVfNC3w6PutM-1" source="_U7OGRrR2ULJxom2kXA7-3" target="2QbaHEwzH14cysp2B7wd-3" edge="1">
          <mxGeometry x="80" y="-420" as="geometry">
            <mxPoint x="200.0344827586207" y="-190.00000000000023" as="targetPoint" />
          </mxGeometry>
        </mxCell>
        <mxCell id="2QbaHEwzH14cysp2B7wd-6" value="[entrées valides]&lt;br&gt;" style="edgeLabel;html=1;align=center;verticalAlign=middle;resizable=0;points=[];fontSize=12;" parent="_U7OGRrR2ULJxom2kXA7-10" vertex="1" connectable="0">
          <mxGeometry relative="1" as="geometry">
            <mxPoint x="-20" y="-17" as="offset" />
          </mxGeometry>
        </mxCell>
        <mxCell id="_U7OGRrR2ULJxom2kXA7-3" value="" style="rhombus;" parent="S9qCdcLRZVfNC3w6PutM-1" vertex="1">
          <mxGeometry x="185" y="-250" width="30" height="30" as="geometry" />
        </mxCell>
        <mxCell id="_U7OGRrR2ULJxom2kXA7-14" style="edgeStyle=orthogonalEdgeStyle;rounded=0;orthogonalLoop=1;jettySize=auto;html=1;endArrow=classic;endFill=1;strokeWidth=3;" parent="S9qCdcLRZVfNC3w6PutM-1" source="_U7OGRrR2ULJxom2kXA7-12" target="_U7OGRrR2ULJxom2kXA7-13" edge="1">
          <mxGeometry x="80" y="-404" as="geometry">
            <Array as="points">
              <mxPoint x="50" y="-134" />
              <mxPoint x="50" y="-134" />
            </Array>
          </mxGeometry>
        </mxCell>
        <mxCell id="_U7OGRrR2ULJxom2kXA7-12" value="Créer une session" style="html=1;align=center;verticalAlign=top;rounded=1;absoluteArcSize=1;arcSize=10;dashed=0;" parent="S9qCdcLRZVfNC3w6PutM-1" vertex="1">
          <mxGeometry x="130" y="-154" width="140" height="40" as="geometry" />
        </mxCell>
        <mxCell id="_U7OGRrR2ULJxom2kXA7-13" value="" style="ellipse;html=1;shape=endState;fillColor=#000000;strokeColor=#000000;" parent="S9qCdcLRZVfNC3w6PutM-1" vertex="1">
          <mxGeometry x="-55" y="-149" width="30" height="30" as="geometry" />
        </mxCell>
        <mxCell id="_U7OGRrR2ULJxom2kXA7-15" value="Créer" style="edgeStyle=orthogonalEdgeStyle;rounded=0;orthogonalLoop=1;jettySize=auto;html=1;endArrow=classic;endFill=1;strokeWidth=3;dashed=1;" parent="S9qCdcLRZVfNC3w6PutM-1" source="_U7OGRrR2ULJxom2kXA7-12" target="_U7OGRrR2ULJxom2kXA7-16" edge="1">
          <mxGeometry x="80" y="-420" as="geometry">
            <mxPoint x="129" y="-2.2737367544323206e-13" as="sourcePoint" />
            <Array as="points">
              <mxPoint x="200" y="-100" />
              <mxPoint x="200" y="-100" />
            </Array>
          </mxGeometry>
        </mxCell>
        <mxCell id="_U7OGRrR2ULJxom2kXA7-16" value=":Token" style="fontStyle=4;" parent="S9qCdcLRZVfNC3w6PutM-1" vertex="1">
          <mxGeometry x="155" y="-70" width="90" height="40" as="geometry" />
        </mxCell>
        <mxCell id="_U7OGRrR2ULJxom2kXA7-20" value="" style="rounded=0;whiteSpace=wrap;html=1;" parent="S9qCdcLRZVfNC3w6PutM-1" vertex="1">
          <mxGeometry x="80" y="240" width="240" height="280" as="geometry" />
        </mxCell>
        <mxCell id="_U7OGRrR2ULJxom2kXA7-21" value="" style="rounded=0;whiteSpace=wrap;html=1;" parent="S9qCdcLRZVfNC3w6PutM-1" vertex="1">
          <mxGeometry x="320" y="241" width="240" height="280" as="geometry" />
        </mxCell>
        <mxCell id="_U7OGRrR2ULJxom2kXA7-22" value="Analyste" style="rounded=0;whiteSpace=wrap;html=1;" parent="S9qCdcLRZVfNC3w6PutM-1" vertex="1">
          <mxGeometry x="80" y="200" width="240" height="40" as="geometry" />
        </mxCell>
        <mxCell id="_U7OGRrR2ULJxom2kXA7-23" value="SAOR" style="rounded=0;whiteSpace=wrap;html=1;" parent="S9qCdcLRZVfNC3w6PutM-1" vertex="1">
          <mxGeometry x="320" y="200" width="240" height="40" as="geometry" />
        </mxCell>
        <mxCell id="_U7OGRrR2ULJxom2kXA7-24" style="edgeStyle=orthogonalEdgeStyle;rounded=0;orthogonalLoop=1;jettySize=auto;html=1;endArrow=classic;endFill=1;strokeWidth=3;" parent="S9qCdcLRZVfNC3w6PutM-1" source="_U7OGRrR2ULJxom2kXA7-29" target="_U7OGRrR2ULJxom2kXA7-31" edge="1">
          <mxGeometry relative="1" as="geometry" />
        </mxCell>
        <mxCell id="_U7OGRrR2ULJxom2kXA7-27" style="edgeStyle=orthogonalEdgeStyle;rounded=0;orthogonalLoop=1;jettySize=auto;html=1;endArrow=classic;endFill=1;strokeWidth=3;" parent="S9qCdcLRZVfNC3w6PutM-1" source="_U7OGRrR2ULJxom2kXA7-28" target="_U7OGRrR2ULJxom2kXA7-29" edge="1">
          <mxGeometry x="80" y="240" as="geometry" />
        </mxCell>
        <mxCell id="_U7OGRrR2ULJxom2kXA7-28" value="" style="ellipse;fillColor=#000000;strokeColor=none;" parent="S9qCdcLRZVfNC3w6PutM-1" vertex="1">
          <mxGeometry x="185" y="280" width="30" height="30" as="geometry" />
        </mxCell>
        <mxCell id="_U7OGRrR2ULJxom2kXA7-29" value="Remplir le formulaire&lt;br&gt;de demande de capture" style="html=1;align=center;verticalAlign=top;rounded=1;absoluteArcSize=1;arcSize=10;dashed=0;" parent="S9qCdcLRZVfNC3w6PutM-1" vertex="1">
          <mxGeometry x="130" y="340" width="140" height="40" as="geometry" />
        </mxCell>
        <mxCell id="6-VwPEtWoeQ1a2vVjjmk-0" style="edgeStyle=orthogonalEdgeStyle;rounded=0;orthogonalLoop=1;jettySize=auto;html=1;endArrow=classic;endFill=1;strokeWidth=3;" parent="S9qCdcLRZVfNC3w6PutM-1" source="_U7OGRrR2ULJxom2kXA7-31" target="_U7OGRrR2ULJxom2kXA7-36" edge="1">
          <mxGeometry relative="1" as="geometry">
            <Array as="points">
              <mxPoint x="440" y="425" />
            </Array>
          </mxGeometry>
        </mxCell>
        <mxCell id="6-VwPEtWoeQ1a2vVjjmk-1" style="edgeStyle=orthogonalEdgeStyle;rounded=0;orthogonalLoop=1;jettySize=auto;html=1;endArrow=classic;endFill=1;strokeWidth=3;dashed=1;" parent="S9qCdcLRZVfNC3w6PutM-1" source="_U7OGRrR2ULJxom2kXA7-31" target="_U7OGRrR2ULJxom2kXA7-38" edge="1">
          <mxGeometry relative="1" as="geometry">
            <Array as="points">
              <mxPoint x="460" y="410" />
              <mxPoint x="460" y="410" />
            </Array>
          </mxGeometry>
        </mxCell>
        <mxCell id="6-VwPEtWoeQ1a2vVjjmk-16" value="Créer" style="edgeLabel;html=1;align=center;verticalAlign=middle;resizable=0;points=[];" parent="6-VwPEtWoeQ1a2vVjjmk-1" vertex="1" connectable="0">
          <mxGeometry x="0.2121" y="-2" relative="1" as="geometry">
            <mxPoint y="-13" as="offset" />
          </mxGeometry>
        </mxCell>
        <mxCell id="_U7OGRrR2ULJxom2kXA7-31" value="Enregistrer la demande&lt;br&gt;de capture" style="html=1;align=center;verticalAlign=top;rounded=1;absoluteArcSize=1;arcSize=10;dashed=0;" parent="S9qCdcLRZVfNC3w6PutM-1" vertex="1">
          <mxGeometry x="370" y="340" width="140" height="40" as="geometry" />
        </mxCell>
        <mxCell id="_U7OGRrR2ULJxom2kXA7-36" value="" style="ellipse;html=1;shape=endState;fillColor=#000000;strokeColor=#000000;" parent="S9qCdcLRZVfNC3w6PutM-1" vertex="1">
          <mxGeometry x="185" y="410" width="30" height="30" as="geometry" />
        </mxCell>
        <mxCell id="_U7OGRrR2ULJxom2kXA7-38" value=":Demande" style="fontStyle=4;" parent="S9qCdcLRZVfNC3w6PutM-1" vertex="1">
          <mxGeometry x="414" y="450" width="90" height="40" as="geometry" />
        </mxCell>
        <mxCell id="6-VwPEtWoeQ1a2vVjjmk-2" value="Activités du cas d&#39;utilisation &quot;Observer des captures enregistrées&quot;" style="shape=umlFrame;whiteSpace=wrap;html=1;width=360;height=30;boundedLbl=1;verticalAlign=middle;align=left;spacingLeft=5;" parent="S9qCdcLRZVfNC3w6PutM-1" vertex="1">
          <mxGeometry x="40" y="600" width="560" height="400" as="geometry" />
        </mxCell>
        <mxCell id="6-VwPEtWoeQ1a2vVjjmk-3" value="" style="rounded=0;whiteSpace=wrap;html=1;" parent="S9qCdcLRZVfNC3w6PutM-1" vertex="1">
          <mxGeometry x="80" y="680" width="240" height="280" as="geometry" />
        </mxCell>
        <mxCell id="6-VwPEtWoeQ1a2vVjjmk-4" value="" style="rounded=0;whiteSpace=wrap;html=1;" parent="S9qCdcLRZVfNC3w6PutM-1" vertex="1">
          <mxGeometry x="320" y="680" width="240" height="280" as="geometry" />
        </mxCell>
        <mxCell id="6-VwPEtWoeQ1a2vVjjmk-5" value="Analyste" style="rounded=0;whiteSpace=wrap;html=1;" parent="S9qCdcLRZVfNC3w6PutM-1" vertex="1">
          <mxGeometry x="80" y="640" width="240" height="40" as="geometry" />
        </mxCell>
        <mxCell id="6-VwPEtWoeQ1a2vVjjmk-6" value="SAOR" style="rounded=0;whiteSpace=wrap;html=1;" parent="S9qCdcLRZVfNC3w6PutM-1" vertex="1">
          <mxGeometry x="320" y="640" width="240" height="40" as="geometry" />
        </mxCell>
        <mxCell id="6-VwPEtWoeQ1a2vVjjmk-7" style="edgeStyle=orthogonalEdgeStyle;rounded=0;orthogonalLoop=1;jettySize=auto;html=1;endArrow=classic;endFill=1;strokeWidth=3;" parent="S9qCdcLRZVfNC3w6PutM-1" source="6-VwPEtWoeQ1a2vVjjmk-10" target="6-VwPEtWoeQ1a2vVjjmk-13" edge="1">
          <mxGeometry relative="1" as="geometry" />
        </mxCell>
        <mxCell id="6-VwPEtWoeQ1a2vVjjmk-8" style="edgeStyle=orthogonalEdgeStyle;rounded=0;orthogonalLoop=1;jettySize=auto;html=1;endArrow=classic;endFill=1;strokeWidth=3;" parent="S9qCdcLRZVfNC3w6PutM-1" source="6-VwPEtWoeQ1a2vVjjmk-9" target="6-VwPEtWoeQ1a2vVjjmk-10" edge="1">
          <mxGeometry x="80" y="680" as="geometry" />
        </mxCell>
        <mxCell id="6-VwPEtWoeQ1a2vVjjmk-9" value="" style="ellipse;fillColor=#000000;strokeColor=none;" parent="S9qCdcLRZVfNC3w6PutM-1" vertex="1">
          <mxGeometry x="185" y="720" width="30" height="30" as="geometry" />
        </mxCell>
        <mxCell id="6-VwPEtWoeQ1a2vVjjmk-10" value="Sélectionner la capture&lt;br&gt;à observer" style="html=1;align=center;verticalAlign=top;rounded=1;absoluteArcSize=1;arcSize=10;dashed=0;" parent="S9qCdcLRZVfNC3w6PutM-1" vertex="1">
          <mxGeometry x="130" y="780" width="140" height="40" as="geometry" />
        </mxCell>
        <mxCell id="6-VwPEtWoeQ1a2vVjjmk-23" style="edgeStyle=orthogonalEdgeStyle;rounded=0;orthogonalLoop=1;jettySize=auto;html=1;entryX=0.5;entryY=0;entryDx=0;entryDy=0;endArrow=classic;endFill=1;strokeWidth=3;" parent="S9qCdcLRZVfNC3w6PutM-1" source="6-VwPEtWoeQ1a2vVjjmk-13" target="6-VwPEtWoeQ1a2vVjjmk-22" edge="1">
          <mxGeometry relative="1" as="geometry">
            <Array as="points">
              <mxPoint x="440" y="840" />
              <mxPoint x="200" y="840" />
            </Array>
          </mxGeometry>
        </mxCell>
        <mxCell id="6-VwPEtWoeQ1a2vVjjmk-13" value="Ouvrir la capture" style="html=1;align=center;verticalAlign=top;rounded=1;absoluteArcSize=1;arcSize=10;dashed=0;" parent="S9qCdcLRZVfNC3w6PutM-1" vertex="1">
          <mxGeometry x="370" y="780" width="140" height="40" as="geometry" />
        </mxCell>
        <mxCell id="6-VwPEtWoeQ1a2vVjjmk-17" value=":Capture" style="fontStyle=4;" parent="S9qCdcLRZVfNC3w6PutM-1" vertex="1">
          <mxGeometry x="395" y="700" width="90" height="40" as="geometry" />
        </mxCell>
        <mxCell id="6-VwPEtWoeQ1a2vVjjmk-18" style="edgeStyle=orthogonalEdgeStyle;rounded=0;orthogonalLoop=1;jettySize=auto;html=1;endArrow=classic;endFill=1;strokeWidth=3;dashed=1;" parent="S9qCdcLRZVfNC3w6PutM-1" source="6-VwPEtWoeQ1a2vVjjmk-13" target="6-VwPEtWoeQ1a2vVjjmk-17" edge="1">
          <mxGeometry relative="1" as="geometry">
            <mxPoint x="470" y="390" as="sourcePoint" />
            <mxPoint x="470" y="460" as="targetPoint" />
            <Array as="points">
              <mxPoint x="440" y="760" />
              <mxPoint x="440" y="760" />
            </Array>
          </mxGeometry>
        </mxCell>
        <mxCell id="6-VwPEtWoeQ1a2vVjjmk-27" style="edgeStyle=orthogonalEdgeStyle;rounded=0;orthogonalLoop=1;jettySize=auto;html=1;endArrow=classic;endFill=1;strokeWidth=3;" parent="S9qCdcLRZVfNC3w6PutM-1" source="6-VwPEtWoeQ1a2vVjjmk-21" target="6-VwPEtWoeQ1a2vVjjmk-25" edge="1">
          <mxGeometry relative="1" as="geometry">
            <Array as="points">
              <mxPoint x="440" y="935" />
            </Array>
          </mxGeometry>
        </mxCell>
        <mxCell id="6-VwPEtWoeQ1a2vVjjmk-21" value="Afficher la capture" style="html=1;align=center;verticalAlign=top;rounded=1;absoluteArcSize=1;arcSize=10;dashed=0;" parent="S9qCdcLRZVfNC3w6PutM-1" vertex="1">
          <mxGeometry x="370" y="860" width="140" height="40" as="geometry" />
        </mxCell>
        <mxCell id="6-VwPEtWoeQ1a2vVjjmk-24" style="edgeStyle=orthogonalEdgeStyle;rounded=0;orthogonalLoop=1;jettySize=auto;html=1;endArrow=classic;endFill=1;strokeWidth=3;" parent="S9qCdcLRZVfNC3w6PutM-1" source="6-VwPEtWoeQ1a2vVjjmk-22" target="6-VwPEtWoeQ1a2vVjjmk-21" edge="1">
          <mxGeometry relative="1" as="geometry" />
        </mxCell>
        <mxCell id="6-VwPEtWoeQ1a2vVjjmk-22" value="Sélectionner &lt;br&gt;les statistiques à afficher" style="html=1;align=center;verticalAlign=top;rounded=1;absoluteArcSize=1;arcSize=10;dashed=0;" parent="S9qCdcLRZVfNC3w6PutM-1" vertex="1">
          <mxGeometry x="130" y="860" width="140" height="40" as="geometry" />
        </mxCell>
        <mxCell id="6-VwPEtWoeQ1a2vVjjmk-25" value="" style="ellipse;html=1;shape=endState;fillColor=#000000;strokeColor=#000000;" parent="S9qCdcLRZVfNC3w6PutM-1" vertex="1">
          <mxGeometry x="185" y="920" width="30" height="30" as="geometry" />
        </mxCell>
        <mxCell id="8Pls1dABDaVJi_l4zL08-0" value="Activités du cas d&#39;utilisation &quot;Observer des captures courantes&quot;" style="shape=umlFrame;whiteSpace=wrap;html=1;width=360;height=30;boundedLbl=1;verticalAlign=middle;align=left;spacingLeft=5;" parent="S9qCdcLRZVfNC3w6PutM-1" vertex="1">
          <mxGeometry x="680" y="600" width="560" height="400" as="geometry" />
        </mxCell>
        <mxCell id="8Pls1dABDaVJi_l4zL08-1" value="" style="rounded=0;whiteSpace=wrap;html=1;" parent="S9qCdcLRZVfNC3w6PutM-1" vertex="1">
          <mxGeometry x="720" y="680" width="240" height="280" as="geometry" />
        </mxCell>
        <mxCell id="8Pls1dABDaVJi_l4zL08-2" value="" style="rounded=0;whiteSpace=wrap;html=1;" parent="S9qCdcLRZVfNC3w6PutM-1" vertex="1">
          <mxGeometry x="960" y="680" width="240" height="280" as="geometry" />
        </mxCell>
        <mxCell id="8Pls1dABDaVJi_l4zL08-3" value="Expert" style="rounded=0;whiteSpace=wrap;html=1;" parent="S9qCdcLRZVfNC3w6PutM-1" vertex="1">
          <mxGeometry x="720" y="640" width="240" height="40" as="geometry" />
        </mxCell>
        <mxCell id="8Pls1dABDaVJi_l4zL08-4" value="SAOR" style="rounded=0;whiteSpace=wrap;html=1;" parent="S9qCdcLRZVfNC3w6PutM-1" vertex="1">
          <mxGeometry x="960" y="640" width="240" height="40" as="geometry" />
        </mxCell>
        <mxCell id="8Pls1dABDaVJi_l4zL08-5" style="edgeStyle=orthogonalEdgeStyle;rounded=0;orthogonalLoop=1;jettySize=auto;html=1;endArrow=classic;endFill=1;strokeWidth=3;" parent="S9qCdcLRZVfNC3w6PutM-1" source="8Pls1dABDaVJi_l4zL08-8" target="8Pls1dABDaVJi_l4zL08-10" edge="1">
          <mxGeometry relative="1" as="geometry" />
        </mxCell>
        <mxCell id="8Pls1dABDaVJi_l4zL08-6" style="edgeStyle=orthogonalEdgeStyle;rounded=0;orthogonalLoop=1;jettySize=auto;html=1;endArrow=classic;endFill=1;strokeWidth=3;" parent="S9qCdcLRZVfNC3w6PutM-1" source="8Pls1dABDaVJi_l4zL08-7" target="8Pls1dABDaVJi_l4zL08-8" edge="1">
          <mxGeometry x="720" y="680" as="geometry" />
        </mxCell>
        <mxCell id="8Pls1dABDaVJi_l4zL08-7" value="" style="ellipse;fillColor=#000000;strokeColor=none;" parent="S9qCdcLRZVfNC3w6PutM-1" vertex="1">
          <mxGeometry x="825" y="720" width="30" height="30" as="geometry" />
        </mxCell>
        <mxCell id="8Pls1dABDaVJi_l4zL08-8" value="Sélectionner la capture&lt;br&gt;à observer" style="html=1;align=center;verticalAlign=top;rounded=1;absoluteArcSize=1;arcSize=10;dashed=0;" parent="S9qCdcLRZVfNC3w6PutM-1" vertex="1">
          <mxGeometry x="770" y="780" width="140" height="40" as="geometry" />
        </mxCell>
        <mxCell id="8Pls1dABDaVJi_l4zL08-9" style="edgeStyle=orthogonalEdgeStyle;rounded=0;orthogonalLoop=1;jettySize=auto;html=1;entryX=0.5;entryY=0;entryDx=0;entryDy=0;endArrow=classic;endFill=1;strokeWidth=3;" parent="S9qCdcLRZVfNC3w6PutM-1" source="8Pls1dABDaVJi_l4zL08-10" target="8Pls1dABDaVJi_l4zL08-16" edge="1">
          <mxGeometry relative="1" as="geometry">
            <Array as="points">
              <mxPoint x="1080" y="840" />
              <mxPoint x="840" y="840" />
            </Array>
          </mxGeometry>
        </mxCell>
        <mxCell id="8Pls1dABDaVJi_l4zL08-10" value="Ouvrir la capture" style="html=1;align=center;verticalAlign=top;rounded=1;absoluteArcSize=1;arcSize=10;dashed=0;" parent="S9qCdcLRZVfNC3w6PutM-1" vertex="1">
          <mxGeometry x="1010" y="780" width="140" height="40" as="geometry" />
        </mxCell>
        <mxCell id="8Pls1dABDaVJi_l4zL08-11" value=":Capture" style="fontStyle=4;" parent="S9qCdcLRZVfNC3w6PutM-1" vertex="1">
          <mxGeometry x="1035" y="700" width="90" height="40" as="geometry" />
        </mxCell>
        <mxCell id="8Pls1dABDaVJi_l4zL08-12" style="edgeStyle=orthogonalEdgeStyle;rounded=0;orthogonalLoop=1;jettySize=auto;html=1;endArrow=classic;endFill=1;strokeWidth=3;dashed=1;" parent="S9qCdcLRZVfNC3w6PutM-1" source="8Pls1dABDaVJi_l4zL08-10" target="8Pls1dABDaVJi_l4zL08-11" edge="1">
          <mxGeometry relative="1" as="geometry">
            <mxPoint x="1110" y="390" as="sourcePoint" />
            <mxPoint x="1110" y="460" as="targetPoint" />
            <Array as="points">
              <mxPoint x="1080" y="760" />
              <mxPoint x="1080" y="760" />
            </Array>
          </mxGeometry>
        </mxCell>
        <mxCell id="8Pls1dABDaVJi_l4zL08-13" style="edgeStyle=orthogonalEdgeStyle;rounded=0;orthogonalLoop=1;jettySize=auto;html=1;endArrow=classic;endFill=1;strokeWidth=3;" parent="S9qCdcLRZVfNC3w6PutM-1" source="8Pls1dABDaVJi_l4zL08-14" target="8Pls1dABDaVJi_l4zL08-17" edge="1">
          <mxGeometry relative="1" as="geometry">
            <Array as="points">
              <mxPoint x="1080" y="935" />
            </Array>
          </mxGeometry>
        </mxCell>
        <mxCell id="8Pls1dABDaVJi_l4zL08-14" value="Afficher la capture" style="html=1;align=center;verticalAlign=top;rounded=1;absoluteArcSize=1;arcSize=10;dashed=0;" parent="S9qCdcLRZVfNC3w6PutM-1" vertex="1">
          <mxGeometry x="1010" y="860" width="140" height="40" as="geometry" />
        </mxCell>
        <mxCell id="8Pls1dABDaVJi_l4zL08-15" style="edgeStyle=orthogonalEdgeStyle;rounded=0;orthogonalLoop=1;jettySize=auto;html=1;endArrow=classic;endFill=1;strokeWidth=3;" parent="S9qCdcLRZVfNC3w6PutM-1" source="8Pls1dABDaVJi_l4zL08-16" target="8Pls1dABDaVJi_l4zL08-14" edge="1">
          <mxGeometry relative="1" as="geometry" />
        </mxCell>
        <mxCell id="8Pls1dABDaVJi_l4zL08-16" value="Sélectionner &lt;br&gt;les statistiques à afficher" style="html=1;align=center;verticalAlign=top;rounded=1;absoluteArcSize=1;arcSize=10;dashed=0;" parent="S9qCdcLRZVfNC3w6PutM-1" vertex="1">
          <mxGeometry x="770" y="860" width="140" height="40" as="geometry" />
        </mxCell>
        <mxCell id="8Pls1dABDaVJi_l4zL08-17" value="" style="ellipse;html=1;shape=endState;fillColor=#000000;strokeColor=#000000;" parent="S9qCdcLRZVfNC3w6PutM-1" vertex="1">
          <mxGeometry x="825" y="920" width="30" height="30" as="geometry" />
        </mxCell>
        <mxCell id="r-fVnQoobiLQAtNrYvot-0" value="Activités du cas d&#39;utilisation &quot;&lt;span style=&quot;text-align: center&quot;&gt;Démarrer&amp;nbsp;&lt;/span&gt;&lt;span style=&quot;text-align: center&quot;&gt;des captures&lt;/span&gt;&quot;" style="shape=umlFrame;whiteSpace=wrap;html=1;width=389;height=30;boundedLbl=1;verticalAlign=middle;align=left;spacingLeft=5;" parent="S9qCdcLRZVfNC3w6PutM-1" vertex="1">
          <mxGeometry x="681" y="160" width="560" height="400" as="geometry" />
        </mxCell>
        <mxCell id="r-fVnQoobiLQAtNrYvot-1" value="" style="rounded=0;whiteSpace=wrap;html=1;" parent="S9qCdcLRZVfNC3w6PutM-1" vertex="1">
          <mxGeometry x="721" y="240" width="240" height="280" as="geometry" />
        </mxCell>
        <mxCell id="r-fVnQoobiLQAtNrYvot-2" value="" style="rounded=0;whiteSpace=wrap;html=1;" parent="S9qCdcLRZVfNC3w6PutM-1" vertex="1">
          <mxGeometry x="961" y="240" width="240" height="280" as="geometry" />
        </mxCell>
        <mxCell id="r-fVnQoobiLQAtNrYvot-3" value="Expert" style="rounded=0;whiteSpace=wrap;html=1;" parent="S9qCdcLRZVfNC3w6PutM-1" vertex="1">
          <mxGeometry x="721" y="200" width="240" height="40" as="geometry" />
        </mxCell>
        <mxCell id="r-fVnQoobiLQAtNrYvot-4" value="SAOR" style="rounded=0;whiteSpace=wrap;html=1;" parent="S9qCdcLRZVfNC3w6PutM-1" vertex="1">
          <mxGeometry x="961" y="200" width="240" height="40" as="geometry" />
        </mxCell>
        <mxCell id="r-fVnQoobiLQAtNrYvot-5" style="edgeStyle=orthogonalEdgeStyle;rounded=0;orthogonalLoop=1;jettySize=auto;html=1;endArrow=classic;endFill=1;strokeWidth=3;" parent="S9qCdcLRZVfNC3w6PutM-1" source="r-fVnQoobiLQAtNrYvot-8" target="r-fVnQoobiLQAtNrYvot-10" edge="1">
          <mxGeometry relative="1" as="geometry" />
        </mxCell>
        <mxCell id="r-fVnQoobiLQAtNrYvot-6" style="edgeStyle=orthogonalEdgeStyle;rounded=0;orthogonalLoop=1;jettySize=auto;html=1;endArrow=classic;endFill=1;strokeWidth=3;" parent="S9qCdcLRZVfNC3w6PutM-1" source="r-fVnQoobiLQAtNrYvot-7" target="r-fVnQoobiLQAtNrYvot-8" edge="1">
          <mxGeometry x="721" y="240" as="geometry" />
        </mxCell>
        <mxCell id="r-fVnQoobiLQAtNrYvot-7" value="" style="ellipse;fillColor=#000000;strokeColor=none;" parent="S9qCdcLRZVfNC3w6PutM-1" vertex="1">
          <mxGeometry x="826" y="280" width="30" height="30" as="geometry" />
        </mxCell>
        <mxCell id="r-fVnQoobiLQAtNrYvot-8" value="Sélectionner la demande&lt;br&gt;à traiter" style="html=1;align=center;verticalAlign=top;rounded=1;absoluteArcSize=1;arcSize=10;dashed=0;" parent="S9qCdcLRZVfNC3w6PutM-1" vertex="1">
          <mxGeometry x="771" y="340" width="140" height="40" as="geometry" />
        </mxCell>
        <mxCell id="NLsEsUYIerXnUwsqk1JV-3" style="edgeStyle=orthogonalEdgeStyle;rounded=0;orthogonalLoop=1;jettySize=auto;html=1;endArrow=classic;endFill=1;strokeWidth=3;" parent="S9qCdcLRZVfNC3w6PutM-1" source="r-fVnQoobiLQAtNrYvot-10" target="NLsEsUYIerXnUwsqk1JV-0" edge="1">
          <mxGeometry relative="1" as="geometry" />
        </mxCell>
        <mxCell id="r-fVnQoobiLQAtNrYvot-10" value="Analyser la demande" style="html=1;align=center;verticalAlign=top;rounded=1;absoluteArcSize=1;arcSize=10;dashed=0;" parent="S9qCdcLRZVfNC3w6PutM-1" vertex="1">
          <mxGeometry x="1011" y="340" width="140" height="40" as="geometry" />
        </mxCell>
        <mxCell id="r-fVnQoobiLQAtNrYvot-11" value=":Demande" style="fontStyle=4;" parent="S9qCdcLRZVfNC3w6PutM-1" vertex="1">
          <mxGeometry x="1036" y="260" width="90" height="40" as="geometry" />
        </mxCell>
        <mxCell id="r-fVnQoobiLQAtNrYvot-12" style="edgeStyle=orthogonalEdgeStyle;rounded=0;orthogonalLoop=1;jettySize=auto;html=1;endArrow=classic;endFill=1;strokeWidth=3;dashed=1;" parent="S9qCdcLRZVfNC3w6PutM-1" source="r-fVnQoobiLQAtNrYvot-10" target="r-fVnQoobiLQAtNrYvot-11" edge="1">
          <mxGeometry relative="1" as="geometry">
            <mxPoint x="1111" y="-50" as="sourcePoint" />
            <mxPoint x="1111" y="20" as="targetPoint" />
            <Array as="points">
              <mxPoint x="1081" y="320" />
              <mxPoint x="1081" y="320" />
            </Array>
          </mxGeometry>
        </mxCell>
        <mxCell id="r-fVnQoobiLQAtNrYvot-17" value="" style="ellipse;html=1;shape=endState;fillColor=#000000;strokeColor=#000000;" parent="S9qCdcLRZVfNC3w6PutM-1" vertex="1">
          <mxGeometry x="826" y="471" width="30" height="30" as="geometry" />
        </mxCell>
        <mxCell id="NLsEsUYIerXnUwsqk1JV-1" style="edgeStyle=orthogonalEdgeStyle;rounded=0;orthogonalLoop=1;jettySize=auto;html=1;endArrow=classic;endFill=1;strokeWidth=3;" parent="S9qCdcLRZVfNC3w6PutM-1" source="NLsEsUYIerXnUwsqk1JV-0" target="r-fVnQoobiLQAtNrYvot-8" edge="1">
          <mxGeometry relative="1" as="geometry" />
        </mxCell>
        <mxCell id="NLsEsUYIerXnUwsqk1JV-2" value="[demande refusée]" style="edgeLabel;html=1;align=center;verticalAlign=middle;resizable=0;points=[];" parent="NLsEsUYIerXnUwsqk1JV-1" vertex="1" connectable="0">
          <mxGeometry x="0.2154" relative="1" as="geometry">
            <mxPoint as="offset" />
          </mxGeometry>
        </mxCell>
        <mxCell id="NLsEsUYIerXnUwsqk1JV-5" value="[demande acceptée]" style="edgeStyle=orthogonalEdgeStyle;rounded=0;orthogonalLoop=1;jettySize=auto;html=1;endArrow=classic;endFill=1;strokeWidth=3;" parent="S9qCdcLRZVfNC3w6PutM-1" source="NLsEsUYIerXnUwsqk1JV-0" target="NLsEsUYIerXnUwsqk1JV-4" edge="1">
          <mxGeometry x="-0.5455" relative="1" as="geometry">
            <mxPoint as="offset" />
          </mxGeometry>
        </mxCell>
        <mxCell id="NLsEsUYIerXnUwsqk1JV-0" value="" style="rhombus;" parent="S9qCdcLRZVfNC3w6PutM-1" vertex="1">
          <mxGeometry x="1066" y="400" width="30" height="30" as="geometry" />
        </mxCell>
        <mxCell id="NLsEsUYIerXnUwsqk1JV-6" style="edgeStyle=orthogonalEdgeStyle;rounded=0;orthogonalLoop=1;jettySize=auto;html=1;endArrow=classic;endFill=1;strokeWidth=3;" parent="S9qCdcLRZVfNC3w6PutM-1" source="NLsEsUYIerXnUwsqk1JV-4" target="r-fVnQoobiLQAtNrYvot-17" edge="1">
          <mxGeometry relative="1" as="geometry" />
        </mxCell>
        <mxCell id="NLsEsUYIerXnUwsqk1JV-4" value="Lancer la capture" style="html=1;align=center;verticalAlign=top;rounded=1;absoluteArcSize=1;arcSize=10;dashed=0;" parent="S9qCdcLRZVfNC3w6PutM-1" vertex="1">
          <mxGeometry x="1011" y="466" width="140" height="40" as="geometry" />
        </mxCell>
        <mxCell id="NLsEsUYIerXnUwsqk1JV-7" value="Activités du cas d&#39;utilisation &quot;&lt;span style=&quot;text-align: center&quot;&gt;Supprimer&amp;nbsp;&lt;/span&gt;&lt;span style=&quot;text-align: center&quot;&gt;des captures&lt;/span&gt;&quot;" style="shape=umlFrame;whiteSpace=wrap;html=1;width=389;height=30;boundedLbl=1;verticalAlign=middle;align=left;spacingLeft=5;" parent="S9qCdcLRZVfNC3w6PutM-1" vertex="1">
          <mxGeometry x="680" y="-200" width="560" height="320" as="geometry" />
        </mxCell>
        <mxCell id="NLsEsUYIerXnUwsqk1JV-8" value="" style="rounded=0;whiteSpace=wrap;html=1;" parent="S9qCdcLRZVfNC3w6PutM-1" vertex="1">
          <mxGeometry x="720" y="-120" width="240" height="200" as="geometry" />
        </mxCell>
        <mxCell id="NLsEsUYIerXnUwsqk1JV-9" value="" style="rounded=0;whiteSpace=wrap;html=1;" parent="S9qCdcLRZVfNC3w6PutM-1" vertex="1">
          <mxGeometry x="960" y="-120" width="240" height="200" as="geometry" />
        </mxCell>
        <mxCell id="NLsEsUYIerXnUwsqk1JV-10" value="Expert" style="rounded=0;whiteSpace=wrap;html=1;" parent="S9qCdcLRZVfNC3w6PutM-1" vertex="1">
          <mxGeometry x="720" y="-160" width="240" height="40" as="geometry" />
        </mxCell>
        <mxCell id="NLsEsUYIerXnUwsqk1JV-11" value="SAOR" style="rounded=0;whiteSpace=wrap;html=1;" parent="S9qCdcLRZVfNC3w6PutM-1" vertex="1">
          <mxGeometry x="960" y="-160" width="240" height="40" as="geometry" />
        </mxCell>
        <mxCell id="NLsEsUYIerXnUwsqk1JV-12" style="edgeStyle=orthogonalEdgeStyle;rounded=0;orthogonalLoop=1;jettySize=auto;html=1;endArrow=classic;endFill=1;strokeWidth=3;" parent="S9qCdcLRZVfNC3w6PutM-1" source="NLsEsUYIerXnUwsqk1JV-15" target="NLsEsUYIerXnUwsqk1JV-17" edge="1">
          <mxGeometry relative="1" as="geometry" />
        </mxCell>
        <mxCell id="NLsEsUYIerXnUwsqk1JV-13" style="edgeStyle=orthogonalEdgeStyle;rounded=0;orthogonalLoop=1;jettySize=auto;html=1;endArrow=classic;endFill=1;strokeWidth=3;" parent="S9qCdcLRZVfNC3w6PutM-1" source="NLsEsUYIerXnUwsqk1JV-14" target="NLsEsUYIerXnUwsqk1JV-15" edge="1">
          <mxGeometry x="720" y="-120" as="geometry" />
        </mxCell>
        <mxCell id="NLsEsUYIerXnUwsqk1JV-14" value="" style="ellipse;fillColor=#000000;strokeColor=none;" parent="S9qCdcLRZVfNC3w6PutM-1" vertex="1">
          <mxGeometry x="825" y="-80" width="30" height="30" as="geometry" />
        </mxCell>
        <mxCell id="NLsEsUYIerXnUwsqk1JV-15" value="Sélectionner la capture&lt;br&gt;à supprimer" style="html=1;align=center;verticalAlign=top;rounded=1;absoluteArcSize=1;arcSize=10;dashed=0;" parent="S9qCdcLRZVfNC3w6PutM-1" vertex="1">
          <mxGeometry x="770" y="-20" width="140" height="40" as="geometry" />
        </mxCell>
        <mxCell id="NLsEsUYIerXnUwsqk1JV-16" style="edgeStyle=orthogonalEdgeStyle;rounded=0;orthogonalLoop=1;jettySize=auto;html=1;endArrow=classic;endFill=1;strokeWidth=3;" parent="S9qCdcLRZVfNC3w6PutM-1" source="NLsEsUYIerXnUwsqk1JV-17" target="OIbOTQZyNCntY73zdLG--0" edge="1">
          <mxGeometry relative="1" as="geometry">
            <mxPoint x="1080" y="40.00000000000023" as="targetPoint" />
            <Array as="points">
              <mxPoint x="1080" y="60" />
            </Array>
          </mxGeometry>
        </mxCell>
        <mxCell id="NLsEsUYIerXnUwsqk1JV-17" value="Supprimer la capture" style="html=1;align=center;verticalAlign=top;rounded=1;absoluteArcSize=1;arcSize=10;dashed=0;" parent="S9qCdcLRZVfNC3w6PutM-1" vertex="1">
          <mxGeometry x="1010" y="-20" width="140" height="40" as="geometry" />
        </mxCell>
        <mxCell id="NLsEsUYIerXnUwsqk1JV-18" value=":Capture" style="fontStyle=4;" parent="S9qCdcLRZVfNC3w6PutM-1" vertex="1">
          <mxGeometry x="1035" y="-100" width="90" height="40" as="geometry" />
        </mxCell>
        <mxCell id="NLsEsUYIerXnUwsqk1JV-19" style="edgeStyle=orthogonalEdgeStyle;rounded=0;orthogonalLoop=1;jettySize=auto;html=1;endArrow=cross;endFill=0;strokeWidth=3;dashed=1;" parent="S9qCdcLRZVfNC3w6PutM-1" source="NLsEsUYIerXnUwsqk1JV-17" target="NLsEsUYIerXnUwsqk1JV-18" edge="1">
          <mxGeometry relative="1" as="geometry">
            <mxPoint x="1110" y="-410" as="sourcePoint" />
            <mxPoint x="1110" y="-340" as="targetPoint" />
            <Array as="points">
              <mxPoint x="1080" y="-40" />
              <mxPoint x="1080" y="-40" />
            </Array>
          </mxGeometry>
        </mxCell>
        <mxCell id="OIbOTQZyNCntY73zdLG--0" value="" style="ellipse;html=1;shape=endState;fillColor=#000000;strokeColor=#000000;" parent="S9qCdcLRZVfNC3w6PutM-1" vertex="1">
          <mxGeometry x="827" y="45" width="30" height="30" as="geometry" />
        </mxCell>
        <mxCell id="OIbOTQZyNCntY73zdLG--1" value="Activités du cas d&#39;utilisation &quot;&lt;span style=&quot;text-align: center&quot;&gt;Enregistrer&amp;nbsp;&lt;/span&gt;&lt;span style=&quot;text-align: center&quot;&gt;des captures&lt;/span&gt;&quot;" style="shape=umlFrame;whiteSpace=wrap;html=1;width=389;height=30;boundedLbl=1;verticalAlign=middle;align=left;spacingLeft=5;" parent="S9qCdcLRZVfNC3w6PutM-1" vertex="1">
          <mxGeometry x="681" y="-560" width="560" height="320" as="geometry" />
        </mxCell>
        <mxCell id="OIbOTQZyNCntY73zdLG--2" value="" style="rounded=0;whiteSpace=wrap;html=1;" parent="S9qCdcLRZVfNC3w6PutM-1" vertex="1">
          <mxGeometry x="721" y="-480" width="240" height="200" as="geometry" />
        </mxCell>
        <mxCell id="OIbOTQZyNCntY73zdLG--3" value="" style="rounded=0;whiteSpace=wrap;html=1;" parent="S9qCdcLRZVfNC3w6PutM-1" vertex="1">
          <mxGeometry x="961" y="-480" width="240" height="200" as="geometry" />
        </mxCell>
        <mxCell id="OIbOTQZyNCntY73zdLG--4" value="Expert" style="rounded=0;whiteSpace=wrap;html=1;" parent="S9qCdcLRZVfNC3w6PutM-1" vertex="1">
          <mxGeometry x="721" y="-520" width="240" height="40" as="geometry" />
        </mxCell>
        <mxCell id="OIbOTQZyNCntY73zdLG--5" value="SAOR" style="rounded=0;whiteSpace=wrap;html=1;" parent="S9qCdcLRZVfNC3w6PutM-1" vertex="1">
          <mxGeometry x="961" y="-520" width="240" height="40" as="geometry" />
        </mxCell>
        <mxCell id="OIbOTQZyNCntY73zdLG--6" style="edgeStyle=orthogonalEdgeStyle;rounded=0;orthogonalLoop=1;jettySize=auto;html=1;endArrow=classic;endFill=1;strokeWidth=3;" parent="S9qCdcLRZVfNC3w6PutM-1" source="OIbOTQZyNCntY73zdLG--9" target="OIbOTQZyNCntY73zdLG--11" edge="1">
          <mxGeometry relative="1" as="geometry" />
        </mxCell>
        <mxCell id="OIbOTQZyNCntY73zdLG--7" style="edgeStyle=orthogonalEdgeStyle;rounded=0;orthogonalLoop=1;jettySize=auto;html=1;endArrow=classic;endFill=1;strokeWidth=3;" parent="S9qCdcLRZVfNC3w6PutM-1" source="OIbOTQZyNCntY73zdLG--8" target="OIbOTQZyNCntY73zdLG--9" edge="1">
          <mxGeometry x="721" y="-480" as="geometry" />
        </mxCell>
        <mxCell id="OIbOTQZyNCntY73zdLG--8" value="" style="ellipse;fillColor=#000000;strokeColor=none;" parent="S9qCdcLRZVfNC3w6PutM-1" vertex="1">
          <mxGeometry x="826" y="-440" width="30" height="30" as="geometry" />
        </mxCell>
        <mxCell id="OIbOTQZyNCntY73zdLG--9" value="Sélectionner la capture&lt;br&gt;à interrompre" style="html=1;align=center;verticalAlign=top;rounded=1;absoluteArcSize=1;arcSize=10;dashed=0;" parent="S9qCdcLRZVfNC3w6PutM-1" vertex="1">
          <mxGeometry x="771" y="-380" width="140" height="40" as="geometry" />
        </mxCell>
        <mxCell id="OIbOTQZyNCntY73zdLG--10" style="edgeStyle=orthogonalEdgeStyle;rounded=0;orthogonalLoop=1;jettySize=auto;html=1;endArrow=classic;endFill=1;strokeWidth=3;" parent="S9qCdcLRZVfNC3w6PutM-1" source="OIbOTQZyNCntY73zdLG--11" target="OIbOTQZyNCntY73zdLG--14" edge="1">
          <mxGeometry relative="1" as="geometry">
            <mxPoint x="1081" y="-319.9999999999998" as="targetPoint" />
            <Array as="points">
              <mxPoint x="1081" y="-300" />
            </Array>
          </mxGeometry>
        </mxCell>
        <mxCell id="OIbOTQZyNCntY73zdLG--11" value="Arrêter et enregistrer&amp;nbsp;&lt;br&gt;la capture" style="html=1;align=center;verticalAlign=top;rounded=1;absoluteArcSize=1;arcSize=10;dashed=0;" parent="S9qCdcLRZVfNC3w6PutM-1" vertex="1">
          <mxGeometry x="1011" y="-380" width="140" height="40" as="geometry" />
        </mxCell>
        <mxCell id="OIbOTQZyNCntY73zdLG--12" value=":Capture" style="fontStyle=4;" parent="S9qCdcLRZVfNC3w6PutM-1" vertex="1">
          <mxGeometry x="1036" y="-460" width="90" height="40" as="geometry" />
        </mxCell>
        <mxCell id="OIbOTQZyNCntY73zdLG--13" style="edgeStyle=orthogonalEdgeStyle;rounded=0;orthogonalLoop=1;jettySize=auto;html=1;endArrow=classic;endFill=1;strokeWidth=3;dashed=1;" parent="S9qCdcLRZVfNC3w6PutM-1" source="OIbOTQZyNCntY73zdLG--11" target="OIbOTQZyNCntY73zdLG--12" edge="1">
          <mxGeometry relative="1" as="geometry">
            <mxPoint x="1111" y="-770" as="sourcePoint" />
            <mxPoint x="1111" y="-700" as="targetPoint" />
            <Array as="points">
              <mxPoint x="1081" y="-400" />
              <mxPoint x="1081" y="-400" />
            </Array>
          </mxGeometry>
        </mxCell>
        <mxCell id="OIbOTQZyNCntY73zdLG--14" value="" style="ellipse;html=1;shape=endState;fillColor=#000000;strokeColor=#000000;" parent="S9qCdcLRZVfNC3w6PutM-1" vertex="1">
          <mxGeometry x="828" y="-315" width="30" height="30" as="geometry" />
        </mxCell>
        <mxCell id="2QbaHEwzH14cysp2B7wd-1" value="SAT" style="rounded=0;whiteSpace=wrap;html=1;" parent="S9qCdcLRZVfNC3w6PutM-1" vertex="1">
          <mxGeometry x="320" y="-460" width="240" height="40" as="geometry" />
        </mxCell>
        <mxCell id="2QbaHEwzH14cysp2B7wd-3" value="Vérifier l&#39;authentification" style="html=1;align=center;verticalAlign=top;rounded=1;absoluteArcSize=1;arcSize=10;dashed=0;" parent="S9qCdcLRZVfNC3w6PutM-1" vertex="1">
          <mxGeometry x="370" y="-255" width="140" height="40" as="geometry" />
        </mxCell>
        <mxCell id="2QbaHEwzH14cysp2B7wd-7" style="edgeStyle=orthogonalEdgeStyle;rounded=0;orthogonalLoop=1;jettySize=auto;html=1;strokeWidth=3;fontSize=12;" parent="S9qCdcLRZVfNC3w6PutM-1" source="2QbaHEwzH14cysp2B7wd-4" target="nfGt8PAzte9HpJvGnNqL-0" edge="1">
          <mxGeometry relative="1" as="geometry" />
        </mxCell>
        <mxCell id="2QbaHEwzH14cysp2B7wd-8" value="[authentification invalide]" style="edgeLabel;html=1;align=center;verticalAlign=middle;resizable=0;points=[];fontSize=12;" parent="2QbaHEwzH14cysp2B7wd-7" vertex="1" connectable="0">
          <mxGeometry x="-0.0041" y="-1" relative="1" as="geometry">
            <mxPoint x="58.53" y="-14" as="offset" />
          </mxGeometry>
        </mxCell>
        <mxCell id="2QbaHEwzH14cysp2B7wd-9" style="edgeStyle=orthogonalEdgeStyle;rounded=0;orthogonalLoop=1;jettySize=auto;html=1;strokeWidth=3;fontSize=12;" parent="S9qCdcLRZVfNC3w6PutM-1" source="2QbaHEwzH14cysp2B7wd-4" target="_U7OGRrR2ULJxom2kXA7-12" edge="1">
          <mxGeometry relative="1" as="geometry">
            <Array as="points">
              <mxPoint x="440" y="-134" />
            </Array>
          </mxGeometry>
        </mxCell>
        <mxCell id="2QbaHEwzH14cysp2B7wd-10" value="[authentification valide]" style="edgeLabel;html=1;align=center;verticalAlign=middle;resizable=0;points=[];fontSize=12;" parent="2QbaHEwzH14cysp2B7wd-9" vertex="1" connectable="0">
          <mxGeometry x="-0.2781" y="1" relative="1" as="geometry">
            <mxPoint x="-5.47" y="12.94" as="offset" />
          </mxGeometry>
        </mxCell>
        <mxCell id="2QbaHEwzH14cysp2B7wd-4" value="" style="rhombus;" parent="S9qCdcLRZVfNC3w6PutM-1" vertex="1">
          <mxGeometry x="425" y="-190" width="30" height="30" as="geometry" />
        </mxCell>
        <mxCell id="2QbaHEwzH14cysp2B7wd-5" style="edgeStyle=orthogonalEdgeStyle;rounded=0;orthogonalLoop=1;jettySize=auto;html=1;endArrow=classic;endFill=1;strokeWidth=3;" parent="S9qCdcLRZVfNC3w6PutM-1" source="2QbaHEwzH14cysp2B7wd-3" target="2QbaHEwzH14cysp2B7wd-4" edge="1">
          <mxGeometry x="90" y="-410" as="geometry">
            <mxPoint x="380" y="-225" as="targetPoint" />
            <mxPoint x="225" y="-225" as="sourcePoint" />
          </mxGeometry>
        </mxCell>
      </root>
    </mxGraphModel>
  </diagram>
</mxfile>
